<svg xmlns="http://www.w3.org/2000/svg" width="100" height="132" viewBox="0 0 100 132" fill="none">
<path fill-rule="evenodd" clip-rule="evenodd" d="M54.6546 32.8436C52.5448 35.3203 50.5174 37.9909 48.6414 40.8592C33.9046 63.3919 34.0931 89.5948 34.0931 89.5948C34.0931 89.5948 58.1748 79.2651 72.9116 56.7324C74.7876 53.8641 76.4217 50.9363 77.8451 48.0107L54.6546 32.8436ZM81.0534 40.5499C87.57 23.2862 87.46 7.99686 87.46 7.99686C87.46 7.99686 73.4084 14.0242 60.2039 26.9139L81.0534 40.5499Z" fill="#FFE660"/>
<path fill-rule="evenodd" clip-rule="evenodd" d="M23.5743 129.728L20.1354 110.935L1.00439 115.742L34.0933 89.5952L23.5743 129.728Z" fill="black"/>
<path fill-rule="evenodd" clip-rule="evenodd" d="M72.9108 56.7326L48.6406 40.8594C50.5167 37.9909 52.5442 35.3203 54.6541 32.8435L77.8443 48.0104C76.4209 50.9362 74.7868 53.8641 72.9108 56.7326Z" fill="black"/>
<path fill-rule="evenodd" clip-rule="evenodd" d="M81.0536 40.5475L60.2051 26.9121C62.8135 24.3661 65.4549 22.0878 68.0145 20.0708L84.1913 30.6508C83.3693 33.8042 82.3408 37.1373 81.0536 40.5475Z" fill="black"/>
</svg>