<svg xmlns="http://www.w3.org/2000/svg" width="140" height="44" viewBox="0 0 140 44" fill="none">
<path fill-rule="evenodd" clip-rule="evenodd" d="M41.6296 5.39843C44.8825 5.33068 48.2334 5.44945 51.6417 5.81059C78.4157 8.6475 98.5925 25.3665 98.5925 25.3665C98.5925 25.3665 75.3601 37.4861 48.5861 34.6492C45.1777 34.288 41.8763 33.7019 38.7098 32.954L41.6296 5.39843ZM30.9017 30.7202C13.4083 24.8486 1.63528 15.0932 1.63528 15.0932C1.63528 15.0932 15.1912 8.02154 33.5267 5.94628L30.9017 30.7202Z" fill="#98F92A"/>
<path fill-rule="evenodd" clip-rule="evenodd" d="M136.333 42.6058L123.951 28.0542L139.773 16.2773L98.5927 25.3692L136.333 42.6058Z" fill="black"/>
<path fill-rule="evenodd" clip-rule="evenodd" d="M48.5864 34.6491L51.6421 5.81055C51.642 5.81054 51.6419 5.81052 51.6418 5.81051C48.2335 5.44938 44.8826 5.33061 41.6298 5.39836L38.7101 32.9539C41.8765 33.7019 45.1779 34.2879 48.5861 34.6491C48.5862 34.6491 48.5863 34.6491 48.5864 34.6491Z" fill="black"/>
<path fill-rule="evenodd" clip-rule="evenodd" d="M30.9016 30.7212L33.5266 5.94727C29.9048 6.3572 26.4694 6.96208 23.2882 7.66891L21.2514 26.8922C24.2138 28.25 27.4461 29.5613 30.9016 30.7212Z" fill="black"/>
</svg>